<svg width="152" height="290" viewBox="0 0 152 290" fill="none" xmlns="http://www.w3.org/2000/svg">
<g id="Group 38">
<g id="Group 2 Copy 3">
<g id="iPhone-X-Mockup">
<g id="phone">
<path id="body" fill-rule="evenodd" clip-rule="evenodd" d="M20.6767 0.330078H131.199C141.799 0.330078 150.392 8.58658 150.392 18.7715V271.228C150.392 281.413 141.799 289.669 131.199 289.669H20.6767C10.0769 289.669 1.48413 281.413 1.48413 271.228V18.7715C1.48413 8.58658 10.0769 0.330078 20.6767 0.330078Z" fill="#213648"/>
<g id="frame">
<path id="reflect-frame-top" opacity="0.595562" fill-rule="evenodd" clip-rule="evenodd" d="M131.627 0H20.1835C14.9806 0.318394 10.1821 2.70102 5.78809 7.14789C8.61391 4.67242 13.6541 1.35985 20.3177 1.35985C20.3177 1.35985 127.05 1.35985 131.493 1.35985C138.156 1.35985 143.196 4.67242 146.022 7.14789C141.628 2.70102 136.83 0.318394 131.627 0Z" fill="url(#paint0_linear_6_907)" fill-opacity="0.65"/>
<path id="reflect-frame-right" opacity="0.75" fill-rule="evenodd" clip-rule="evenodd" d="M147.376 268.35V20.2899C147.376 13.6342 144.939 11.1738 143.485 9.59394C142.031 8.01405 141.969 7.20824 144.058 8.40109C146.147 9.59394 150.326 13.0682 150.326 20.2899V268.35C150.326 275.571 146.147 279.046 144.058 280.238C141.969 281.431 142.031 280.625 143.485 279.045C144.939 277.466 147.376 275.005 147.376 268.35Z" fill="url(#paint1_linear_6_907)"/>
<path id="reflect-frame-left" opacity="0.75" fill-rule="evenodd" clip-rule="evenodd" d="M4.43393 268.35V20.2899C4.43393 13.6342 6.87139 11.1738 8.32546 9.59394C9.77953 8.01405 9.84141 7.20824 7.75217 8.40109C5.66292 9.59394 1.4841 13.0682 1.4841 20.2899V268.35C1.4841 275.571 5.66292 279.046 7.75217 280.238C9.84141 281.431 9.77953 280.625 8.32546 279.045C6.87139 277.466 4.43393 275.005 4.43393 268.35Z" fill="url(#paint2_linear_6_907)"/>
</g>
<g id="controls">
<path id="vol+" fill-rule="evenodd" clip-rule="evenodd" d="M0 60.337C0 59.5446 0.642301 58.9023 1.43462 58.9023C2.22694 58.9023 2.86924 59.5446 2.86924 60.337V94.7912C2.86924 95.5835 2.22694 96.2258 1.43462 96.2258C0.642301 96.2258 0 95.5835 0 94.7912V60.337Z" fill="#2E423C"/>
<path id="power" fill-rule="evenodd" clip-rule="evenodd" d="M148.842 90.7793C148.842 89.987 149.484 89.3447 150.276 89.3447C151.069 89.3447 151.711 89.987 151.711 90.7793V115.141C151.711 115.933 151.069 116.576 150.276 116.576C149.484 116.576 148.842 115.933 148.842 115.141V90.7793Z" fill="#2E423C"/>
</g>
</g>
<g id="Screen">
<path id="Screen Mask" fill-rule="evenodd" clip-rule="evenodd" d="M62.8091 7.21777L19.8062 7.21777C13.3884 7.21777 8.71216 11.6045 8.71216 17.3338V262.32C8.71216 269.79 15.9378 276.409 24.1082 276.409H127.753C135.623 276.409 143.149 269.739 143.149 262.32V17.996C143.149 11.129 138.069 7.25861 132.055 7.21777L88.3705 7.21777C88.205 7.245 85.2041 8.48319 83.9358 11.6045C82.6675 14.7258 80.1156 17.214 77.3215 17.214H74.0764C72.7483 17.214 69.2518 15.9208 67.4813 11.6045C65.7108 7.2882 62.9746 7.245 62.8091 7.21777Z" fill="#36536B"/>
<mask id="mask0_6_907" style="mask-type:luminance" maskUnits="userSpaceOnUse" x="8" y="7" width="136" height="270">
<path id="Screen Mask_2" fill-rule="evenodd" clip-rule="evenodd" d="M62.8091 7.21777L19.8062 7.21777C13.3884 7.21777 8.71216 11.6045 8.71216 17.3338V262.32C8.71216 269.79 15.9378 276.409 24.1082 276.409H127.753C135.623 276.409 143.149 269.739 143.149 262.32V17.996C143.149 11.129 138.069 7.25861 132.055 7.21777L88.3705 7.21777C88.205 7.245 85.2041 8.48319 83.9358 11.6045C82.6675 14.7258 80.1156 17.214 77.3215 17.214H74.0764C72.7483 17.214 69.2518 15.9208 67.4813 11.6045C65.7108 7.2882 62.9746 7.245 62.8091 7.21777Z" fill="white"/>
</mask>
<g mask="url(#mask0_6_907)">
</g>
</g>
</g>
</g>
<g id="Group 39">
<g id="Group 33">
<g id="Group 34">
<rect id="Rectangle" x="24.8518" y="82.3604" width="101.719" height="110.78" rx="2" fill="#FBFCFE"/>
<g id="Group 32">
<path id="Paymentof$9204iscompletedandprocessedsuccessfully" fill-rule="evenodd" clip-rule="evenodd" d="M87.3493 150.847L87.3493 151.52H86.4026L86.4026 150.848L86.3856 150.846C85.9607 150.794 85.6008 150.673 85.3057 150.482C84.9 150.219 84.6671 149.814 84.607 149.266L85.749 149.243C85.8091 149.492 85.9387 149.681 86.1378 149.811C86.3369 149.94 86.5867 150.005 86.8873 150.005C87.0676 150.005 87.2272 149.975 87.3662 149.916C87.5052 149.857 87.6148 149.777 87.6949 149.675C87.7751 149.573 87.8151 149.457 87.8151 149.326C87.8151 149.125 87.7513 148.975 87.6236 148.876C87.4958 148.776 87.2992 148.697 87.0338 148.636L86.1434 148.444C85.7302 148.361 85.399 148.196 85.1498 147.948C84.9006 147.701 84.7735 147.368 84.7685 146.951C84.766 146.609 84.858 146.313 85.0446 146.063C85.2312 145.813 85.4854 145.62 85.8072 145.484L85.9476 145.43C86.0903 145.381 86.2403 145.343 86.3975 145.318L86.4211 145.316L86.4214 144.568H87.3719L87.3718 145.32L87.4653 145.336C87.6428 145.373 87.8064 145.428 87.956 145.501C88.2553 145.648 88.4857 145.846 88.6472 146.093C88.8088 146.341 88.887 146.614 88.882 146.913L87.7738 146.932C87.7388 146.691 87.6586 146.501 87.5334 146.363C87.4082 146.225 87.2003 146.156 86.9098 146.156C86.7595 146.156 86.6255 146.172 86.5078 146.205C86.3901 146.237 86.2887 146.283 86.2035 146.342C86.1184 146.401 86.0539 146.471 86.0101 146.551C85.9662 146.632 85.9443 146.722 85.9443 146.823C85.9443 146.981 85.9976 147.106 86.104 147.198C86.2104 147.29 86.4114 147.374 86.7069 147.452L87.5822 147.667C88.0756 147.785 88.4319 147.988 88.651 148.274C88.8701 148.561 88.9797 148.909 88.9797 149.319C88.9797 149.633 88.8939 149.907 88.7224 150.14C88.5508 150.374 88.3085 150.555 87.9955 150.683L87.8579 150.734C87.717 150.781 87.566 150.817 87.4048 150.84L87.3493 150.847ZM44.9808 148.802V150.8H44.1618V145.349H46.0439C46.4321 145.349 46.7796 145.415 47.0864 145.549C47.3932 145.682 47.6348 145.878 47.8114 146.137C47.988 146.396 48.0762 146.713 48.0762 147.09C48.0762 147.452 47.9955 147.761 47.8339 148.016C47.6724 148.271 47.447 148.466 47.1577 148.6C46.8685 148.735 46.5335 148.802 46.1528 148.802H44.9808ZM44.977 148.142H46.1303C46.4759 148.142 46.7577 148.042 46.9755 147.843C47.1934 147.643 47.3024 147.377 47.3024 147.045C47.3024 146.708 47.1897 146.45 46.9643 146.271C46.7389 146.091 46.4509 146.001 46.1002 146.001H44.977V148.142ZM49.7867 150.876C50.0647 150.876 50.3145 150.818 50.5361 150.704C50.7578 150.59 50.9412 150.383 51.0865 150.084L51.1503 150.8H51.8303V148.074C51.8303 147.808 51.7746 147.582 51.6631 147.396C51.5517 147.21 51.382 147.068 51.1541 146.972C50.9262 146.875 50.6357 146.827 50.2825 146.827C49.9645 146.827 49.6877 146.872 49.4523 146.962C49.2169 147.053 49.0322 147.187 48.8982 147.364C48.7642 147.541 48.6897 147.759 48.6747 148.018H49.3734C49.4235 147.799 49.5293 147.642 49.6909 147.547C49.8524 147.451 50.0371 147.403 50.245 147.403C50.5205 147.401 50.7246 147.464 50.8573 147.592C50.99 147.72 51.0564 147.896 51.0564 148.12V148.402L50.4178 148.421C49.7491 148.434 49.262 148.547 48.9564 148.761C48.6509 148.974 48.4981 149.297 48.4981 149.729C48.4981 149.971 48.5532 150.177 48.6634 150.348C48.7736 150.519 48.9258 150.649 49.1199 150.74C49.314 150.83 49.5362 150.876 49.7867 150.876ZM49.4899 150.139C49.6351 150.255 49.818 150.314 50.0384 150.314C50.1611 150.314 50.2825 150.292 50.4028 150.248C50.523 150.204 50.6319 150.144 50.7296 150.067C50.8273 149.99 50.9055 149.904 50.9644 149.809C51.0232 149.713 51.0539 149.615 51.0564 149.515V148.87L50.5305 148.881C50.2625 148.884 50.0352 148.911 49.8486 148.964C49.6621 149.017 49.5193 149.099 49.4204 149.209C49.3215 149.32 49.272 149.467 49.272 149.65C49.272 149.859 49.3446 150.022 49.4899 150.139ZM53.2157 152.044C53.4011 152.044 53.5726 152.015 53.7304 151.958C53.8882 151.9 54.0328 151.797 54.1643 151.648C54.2958 151.5 54.4166 151.29 54.5268 151.019L56.1459 146.902H55.357L54.2751 149.782L53.1857 146.902H52.3818L53.8957 150.687L53.7755 151.015C53.7605 151.058 53.7379 151.104 53.7079 151.155C53.6778 151.205 53.6346 151.252 53.5783 151.296C53.5219 151.34 53.4455 151.374 53.3491 151.4C53.2527 151.425 53.1293 151.434 52.9791 151.426L52.5846 151.418V151.939L52.7217 151.991C52.8132 152.027 52.9778 152.044 53.2157 152.044ZM57.5873 148.225V150.8H56.7834V146.902H57.5647V147.464C57.6749 147.293 57.8252 147.144 58.0155 147.017C58.2059 146.89 58.4513 146.827 58.7518 146.827C58.8921 146.827 59.0342 146.85 59.1782 146.898C59.3222 146.946 59.455 147.017 59.5764 147.111C59.6979 147.205 59.7937 147.322 59.8638 147.46C59.9865 147.274 60.1506 147.122 60.3559 147.004C60.5613 146.886 60.7917 146.827 61.0472 146.827C61.1849 146.827 61.3277 146.849 61.4754 146.893C61.6232 146.937 61.7603 147.011 61.8868 147.115C62.0132 147.219 62.1159 147.363 62.1948 147.547C62.2737 147.73 62.3132 147.963 62.3132 148.244V150.8H61.5055V148.331C61.5055 148.117 61.4698 147.95 61.3984 147.829C61.327 147.709 61.2344 147.624 61.1204 147.575C61.0065 147.526 60.8856 147.501 60.7579 147.501C60.6427 147.501 60.5225 147.524 60.3973 147.569C60.272 147.615 60.1656 147.69 60.0779 147.795C59.9903 147.901 59.9465 148.044 59.9465 148.225V150.8H59.1425V148.157C59.1425 148.014 59.1043 147.893 59.028 147.795C58.9516 147.697 58.8564 147.624 58.7425 147.575C58.6285 147.526 58.5152 147.501 58.4025 147.501C58.2773 147.501 58.152 147.527 58.0268 147.577C57.9016 147.627 57.797 147.706 57.7131 147.812C57.6292 147.919 57.5873 148.057 57.5873 148.225ZM64.9501 150.876C65.208 150.876 65.4547 150.828 65.6901 150.734C65.9255 150.64 66.1265 150.5 66.2931 150.314C66.4596 150.128 66.5654 149.902 66.6105 149.635H65.8667C65.8141 149.844 65.7033 150.001 65.5342 150.106C65.3652 150.212 65.1654 150.265 64.935 150.265C64.7046 150.265 64.5118 150.211 64.3565 150.105C64.2012 149.998 64.0854 149.852 64.009 149.667C63.9326 149.483 63.8944 149.273 63.8944 149.04H66.6293V148.772C66.6293 148.377 66.5629 148.035 66.4302 147.745C66.2974 147.454 66.1027 147.229 65.846 147.068C65.5893 146.907 65.2731 146.827 64.8975 146.827C64.5168 146.827 64.1912 146.915 63.9207 147.09C63.6503 147.266 63.4436 147.51 63.3009 147.82C63.1581 148.13 63.0868 148.488 63.0868 148.893C63.0868 149.302 63.165 149.655 63.3215 149.952C63.4781 150.248 63.6966 150.477 63.9771 150.636C64.2576 150.796 64.5819 150.876 64.9501 150.876ZM63.8944 148.516H65.8629C65.8629 148.312 65.8279 148.127 65.7577 147.959C65.6876 147.792 65.5805 147.66 65.4365 147.564C65.2925 147.467 65.1116 147.418 64.8937 147.418C64.6708 147.418 64.4855 147.473 64.3377 147.581C64.19 147.689 64.0791 147.827 64.0053 147.995C63.9314 148.164 63.8944 148.337 63.8944 148.516ZM68.2728 150.8V148.225C68.2728 148.064 68.3166 147.931 68.4043 147.824C68.4919 147.717 68.6071 147.637 68.7499 147.584C68.8926 147.532 69.0429 147.505 69.2007 147.505C69.4361 147.505 69.6283 147.573 69.7773 147.709C69.9263 147.844 70.0008 148.052 70.0008 148.331V150.8H70.8048V148.244C70.8048 147.92 70.7422 147.655 70.6169 147.451C70.4917 147.246 70.3258 147.095 70.1192 146.998C69.9126 146.901 69.6878 146.853 69.4449 146.853C69.2395 146.853 69.0585 146.882 68.902 146.94C68.7455 146.997 68.614 147.073 68.5076 147.166C68.4011 147.259 68.3166 147.358 68.254 147.464V146.902H67.4689V150.8H68.2728ZM73.4788 150.804C73.3798 150.819 73.2527 150.827 73.0975 150.827C72.8095 150.827 72.5859 150.788 72.4269 150.71C72.2679 150.632 72.1577 150.519 72.0963 150.372C72.035 150.225 72.0043 150.047 72.0043 149.839V147.483H71.3732V146.902H72.0268L72.2259 145.756H72.8082V146.898H73.6797V147.483H72.8082L72.812 149.809C72.812 149.937 72.8251 150.03 72.8514 150.09C72.8777 150.149 72.9228 150.186 72.9866 150.203C73.0505 150.219 73.1375 150.227 73.2477 150.227H73.7023V150.751C73.6522 150.771 73.5777 150.789 73.4788 150.804ZM77.6995 150.876C78.0877 150.876 78.4152 150.791 78.6819 150.621C78.9486 150.451 79.1515 150.216 79.2905 149.914C79.4295 149.613 79.499 149.265 79.499 148.87C79.499 148.438 79.4251 148.069 79.2773 147.763C79.1296 147.458 78.9217 147.226 78.6537 147.066C78.3857 146.906 78.0689 146.827 77.7033 146.827C77.3201 146.827 76.9933 146.911 76.7228 147.081C76.4523 147.251 76.2463 147.489 76.1048 147.795C75.9633 148.102 75.8926 148.46 75.8926 148.87C75.8926 149.295 75.9671 149.657 76.1161 149.956C76.2651 150.255 76.4755 150.483 76.7472 150.64C77.0189 150.797 77.3364 150.876 77.6995 150.876ZM77.1135 150.061C77.2638 150.189 77.4604 150.254 77.7033 150.254C77.9237 150.254 78.1084 150.195 78.2574 150.078C78.4064 149.961 78.5185 149.797 78.5936 149.584C78.6687 149.372 78.7063 149.126 78.7063 148.847C78.7063 148.588 78.6731 148.353 78.6068 148.14C78.5404 147.928 78.4333 147.759 78.2856 147.633C78.1378 147.508 77.9437 147.445 77.7033 147.445C77.4779 147.445 77.29 147.502 77.1398 147.616C76.9895 147.731 76.8762 147.893 76.7998 148.103C76.7234 148.313 76.6852 148.561 76.6852 148.847C76.6852 149.101 76.719 149.335 76.7867 149.549C76.8543 149.762 76.9632 149.933 77.1135 150.061ZM81.4942 150.8V147.483H82.4033V146.902H81.4792V146.404C81.4792 146.236 81.5073 146.111 81.5637 146.029C81.62 145.948 81.7258 145.907 81.8811 145.907H82.4409L82.4371 145.349H81.6632C81.3427 145.349 81.0997 145.431 80.9344 145.596C80.7691 145.76 80.6865 145.998 80.6865 146.31V146.902H79.8938V147.483H80.6865V150.8H81.4942ZM91.6154 150.883C92.0913 150.883 92.5008 150.776 92.8439 150.561C93.187 150.346 93.4506 150.022 93.6346 149.588C93.8187 149.155 93.9108 148.612 93.9108 147.961C93.9108 147.416 93.8212 146.942 93.6422 146.538C93.4631 146.135 93.2064 145.823 92.872 145.603C92.5377 145.383 92.1401 145.273 91.6793 145.273C91.2686 145.273 90.9104 145.353 90.6049 145.511C90.2994 145.669 90.0614 145.888 89.8911 146.167C89.7208 146.446 89.6357 146.764 89.6357 147.121C89.6357 147.475 89.7164 147.781 89.878 148.039C90.0395 148.296 90.2624 148.495 90.5467 148.634C90.8309 148.774 91.1571 148.844 91.5253 148.844C91.7281 148.844 91.9122 148.817 92.0775 148.762C92.2428 148.708 92.3874 148.632 92.5114 148.533C92.6354 148.433 92.7324 148.317 92.8025 148.184C92.8326 148.619 92.7982 148.97 92.6992 149.239C92.6003 149.508 92.4525 149.704 92.2559 149.828C92.0593 149.951 91.8308 150.012 91.5704 150.012C91.3349 150.012 91.1396 149.946 90.9843 149.814C90.829 149.682 90.7289 149.511 90.6838 149.3H89.6394C89.662 149.619 89.7659 149.897 89.9512 150.135C90.1366 150.372 90.3757 150.556 90.6688 150.687C90.9618 150.818 91.2773 150.883 91.6154 150.883ZM91.0632 147.733C91.2285 147.89 91.4451 147.969 91.7131 147.969C91.8659 147.969 92.0143 147.934 92.1583 147.865C92.3023 147.796 92.4206 147.709 92.5133 147.603C92.6059 147.498 92.6523 147.388 92.6523 147.275C92.6548 147.031 92.6166 146.822 92.5377 146.648C92.4588 146.473 92.3486 146.339 92.2071 146.246C92.0656 146.153 91.9009 146.107 91.7131 146.107C91.5403 146.107 91.3863 146.147 91.251 146.227C91.1158 146.308 91.0094 146.421 90.9317 146.566C90.8541 146.712 90.8153 146.881 90.8153 147.072C90.8153 147.356 90.8979 147.576 91.0632 147.733ZM98.5976 150.8V149.873H95.829V149.824C95.829 149.658 95.879 149.516 95.9792 149.398C96.0794 149.28 96.2121 149.173 96.3774 149.079C96.5427 148.985 96.7237 148.893 96.9203 148.802C97.1169 148.712 97.3141 148.614 97.5119 148.508C97.7098 148.402 97.8914 148.279 98.0567 148.139C98.2219 147.998 98.3547 147.828 98.4549 147.63C98.555 147.431 98.6051 147.195 98.6051 146.921C98.6051 146.592 98.525 146.304 98.3647 146.058C98.2044 145.811 97.9771 145.619 97.6829 145.481C97.3886 145.342 97.0386 145.273 96.6329 145.273C96.1595 145.273 95.7663 145.356 95.4533 145.522C95.1402 145.688 94.9054 145.912 94.7489 146.195C94.5924 146.478 94.5116 146.793 94.5066 147.139H95.5547C95.5998 146.82 95.7175 146.582 95.9078 146.423C96.0982 146.265 96.3298 146.186 96.6028 146.186C96.8658 146.186 97.073 146.255 97.2246 146.393C97.3761 146.531 97.4518 146.71 97.4518 146.928C97.4518 147.099 97.4005 147.248 97.2978 147.373C97.1951 147.499 97.0593 147.613 96.8902 147.714C96.7212 147.816 96.5352 147.917 96.3323 148.018C96.1295 148.118 95.9273 148.225 95.7256 148.338C95.524 148.451 95.3387 148.583 95.1697 148.732C95.0006 148.882 94.8647 149.058 94.7621 149.26C94.6594 149.462 94.608 149.702 94.608 149.978V150.8H98.5976ZM102.86 150.161C102.492 150.642 101.98 150.883 101.323 150.883C100.665 150.883 100.151 150.643 99.7814 150.163C99.412 149.683 99.2273 148.992 99.2273 148.09C99.2273 147.486 99.3124 146.975 99.4827 146.555C99.653 146.135 99.8947 145.817 100.208 145.599C100.521 145.382 100.893 145.273 101.323 145.273C101.97 145.273 102.479 145.515 102.852 145.999C103.226 146.483 103.412 147.178 103.412 148.086C103.412 148.988 103.228 149.68 102.86 150.161ZM101.324 149.982C100.998 149.982 100.757 149.836 100.602 149.545C100.447 149.253 100.369 148.768 100.369 148.09C100.369 147.398 100.448 146.901 100.604 146.597C100.761 146.293 100.999 146.14 101.32 146.14C101.64 146.14 101.877 146.291 102.03 146.593C102.183 146.894 102.259 147.393 102.259 148.09C102.259 148.771 102.184 149.256 102.034 149.547C101.883 149.837 101.647 149.982 101.324 149.982ZM107.532 149.594V150.8H106.476L106.48 149.594H103.978V148.689L106.454 145.349H107.532V148.67H108.37V149.594H107.532ZM106.48 148.67H104.992L106.48 146.672V148.67ZM48.0698 155.793V156.588H47.2621V155.793H48.0698ZM48.0548 161.24V157.342H47.2809V161.24H48.0548ZM51.396 161.174C51.1669 161.268 50.8945 161.316 50.579 161.316C50.3085 161.316 50.0549 161.273 49.8182 161.187C49.5816 161.102 49.3837 160.967 49.2247 160.784C49.0657 160.601 48.9661 160.366 48.926 160.079H49.6436C49.6761 160.227 49.7381 160.35 49.8295 160.447C49.9209 160.543 50.0311 160.615 50.1601 160.661C50.2891 160.708 50.4274 160.731 50.5752 160.731C50.8206 160.731 51.0191 160.687 51.1706 160.597C51.3222 160.508 51.3979 160.371 51.3979 160.185C51.3979 160.051 51.3572 159.945 51.2758 159.864C51.1944 159.784 51.0661 159.725 50.8908 159.687L50.1169 159.502C49.7963 159.427 49.5396 159.307 49.3468 159.142C49.1539 158.978 49.0563 158.747 49.0538 158.45C49.0538 158.222 49.1107 158.018 49.2247 157.84C49.3386 157.661 49.5083 157.521 49.7337 157.419C49.9591 157.317 50.2396 157.267 50.5752 157.267C51.0135 157.267 51.3654 157.365 51.6308 157.561C51.8963 157.757 52.034 158.041 52.0441 158.413H51.3491C51.324 158.234 51.2433 158.094 51.1068 157.992C50.9703 157.891 50.7906 157.84 50.5677 157.84C50.3373 157.84 50.1482 157.885 50.0004 157.977C49.8527 158.069 49.7788 158.209 49.7788 158.398C49.7788 158.526 49.8326 158.627 49.9403 158.701C50.048 158.775 50.2096 158.836 50.4249 158.884L51.1612 159.069C51.3516 159.119 51.5081 159.185 51.6308 159.267C51.7535 159.348 51.85 159.438 51.9201 159.536C51.9902 159.634 52.0397 159.736 52.0685 159.841C52.0973 159.947 52.1117 160.046 52.1117 160.139C52.1117 160.386 52.0497 160.596 51.9257 160.771C51.8018 160.945 51.6252 161.08 51.396 161.174ZM56.0688 161.316C56.3543 161.316 56.6104 161.26 56.837 161.15C57.0637 161.039 57.2477 160.885 57.3892 160.686C57.5307 160.487 57.6153 160.257 57.6428 159.996H56.9591C56.9391 160.114 56.8927 160.229 56.8201 160.339C56.7475 160.45 56.6492 160.54 56.5252 160.611C56.4012 160.681 56.2554 160.716 56.0876 160.716C55.7394 160.716 55.4746 160.588 55.293 160.332C55.1115 160.075 55.0207 159.731 55.0207 159.299C55.0207 158.826 55.1183 158.476 55.3137 158.247C55.509 158.018 55.762 157.904 56.0725 157.904C56.2428 157.904 56.39 157.937 56.5139 158.004C56.6379 158.07 56.7368 158.159 56.8107 158.269C56.8846 158.38 56.9328 158.499 56.9553 158.628H57.6503C57.6203 158.356 57.5351 158.119 57.3949 157.915C57.2546 157.711 57.0712 157.552 56.8445 157.438C56.6179 157.324 56.3593 157.267 56.0688 157.267C55.6906 157.267 55.3657 157.352 55.0939 157.523C54.8222 157.694 54.6149 157.933 54.4722 158.239C54.3294 158.546 54.2581 158.902 54.2581 159.306C54.2581 159.736 54.3351 160.101 54.4891 160.401C54.6431 160.702 54.8566 160.929 55.1296 161.084C55.4026 161.238 55.7156 161.316 56.0688 161.316ZM61.0447 161.061C60.7779 161.231 60.4505 161.316 60.0623 161.316C59.6992 161.316 59.3817 161.237 59.11 161.08C58.8383 160.923 58.6279 160.695 58.4789 160.396C58.3299 160.097 58.2553 159.735 58.2553 159.31C58.2553 158.9 58.3261 158.542 58.4676 158.235C58.6091 157.929 58.8151 157.691 59.0856 157.521C59.356 157.351 59.6829 157.267 60.0661 157.267C60.4317 157.267 60.7485 157.346 61.0165 157.506C61.2845 157.666 61.4923 157.898 61.6401 158.203C61.7879 158.509 61.8617 158.878 61.8617 159.31C61.8617 159.705 61.7922 160.053 61.6532 160.354C61.5142 160.656 61.3114 160.891 61.0447 161.061ZM60.0661 160.694C59.8231 160.694 59.6265 160.629 59.4763 160.501C59.326 160.373 59.217 160.202 59.1494 159.989C59.0818 159.775 59.048 159.541 59.048 159.287C59.048 159.001 59.0862 158.753 59.1626 158.543C59.239 158.333 59.3523 158.171 59.5026 158.056C59.6528 157.942 59.8407 157.885 60.0661 157.885C60.3065 157.885 60.5006 157.948 60.6483 158.073C60.7961 158.199 60.9032 158.368 60.9695 158.58C61.0359 158.793 61.0691 159.028 61.0691 159.287C61.0691 159.566 61.0315 159.812 60.9564 160.024C60.8812 160.237 60.7692 160.401 60.6202 160.518C60.4711 160.635 60.2864 160.694 60.0661 160.694ZM63.4663 158.665V161.24H62.6623V157.342H63.4437V157.904C63.5539 157.733 63.7042 157.584 63.8945 157.457C64.0849 157.33 64.3303 157.267 64.6308 157.267C64.7711 157.267 64.9132 157.29 65.0572 157.338C65.2012 157.386 65.3339 157.457 65.4554 157.551C65.5769 157.645 65.6727 157.762 65.7428 157.9C65.8655 157.714 66.0295 157.562 66.2349 157.444C66.4403 157.326 66.6707 157.267 66.9261 157.267C67.0639 157.267 67.2066 157.289 67.3544 157.333C67.5022 157.377 67.6393 157.451 67.7657 157.555C67.8922 157.659 67.9949 157.803 68.0738 157.987C68.1527 158.17 68.1921 158.403 68.1921 158.684V161.24H67.3844V158.771C67.3844 158.557 67.3488 158.39 67.2774 158.269C67.206 158.149 67.1133 158.064 66.9994 158.015C66.8854 157.966 66.7646 157.941 66.6369 157.941C66.5217 157.941 66.4015 157.964 66.2762 158.009C66.151 158.055 66.0446 158.13 65.9569 158.235C65.8693 158.341 65.8254 158.484 65.8254 158.665V161.24H65.0215V158.597C65.0215 158.454 64.9833 158.333 64.9069 158.235C64.8305 158.137 64.7354 158.064 64.6214 158.015C64.5075 157.966 64.3941 157.941 64.2815 157.941C64.1562 157.941 64.031 157.967 63.9058 158.017C63.7806 158.067 63.676 158.146 63.5921 158.252C63.5082 158.359 63.4663 158.497 63.4663 158.665ZM69.9725 162.454V160.569C70.0176 160.655 70.0746 160.741 70.1434 160.827C70.2123 160.914 70.2956 160.994 70.3933 161.069C70.4909 161.143 70.6036 161.202 70.7314 161.248C70.8591 161.293 71.0031 161.316 71.1634 161.316C71.4965 161.316 71.7845 161.237 72.0274 161.08C72.2703 160.923 72.4575 160.691 72.589 160.384C72.7205 160.078 72.7862 159.698 72.7862 159.246C72.7862 158.796 72.7205 158.425 72.589 158.132C72.4575 157.839 72.2747 157.622 72.0405 157.48C71.8064 157.338 71.5365 157.267 71.231 157.267C71.0682 157.267 70.9198 157.288 70.7858 157.331C70.6518 157.373 70.5329 157.431 70.4289 157.502C70.325 157.574 70.2355 157.652 70.1603 157.736C70.0852 157.82 70.0238 157.905 69.9763 157.99L69.9688 157.342H69.1648V162.454H69.9725ZM70.4271 160.505C70.5798 160.636 70.7689 160.701 70.9943 160.701C71.2923 160.701 71.5372 160.585 71.7287 160.352C71.9203 160.12 72.0161 159.756 72.0161 159.261C72.0161 158.836 71.9278 158.5 71.7513 158.252C71.5747 158.005 71.3224 157.881 70.9943 157.881C70.6562 157.881 70.4008 158.01 70.228 158.268C70.0552 158.525 69.9688 158.856 69.9688 159.261C69.9688 159.525 70.0069 159.765 70.0833 159.983C70.1597 160.2 70.2743 160.374 70.4271 160.505ZM74.6404 161.293C74.698 161.293 74.7599 161.287 74.8263 161.274C74.8927 161.262 74.9572 161.245 75.0198 161.225V160.712L74.8169 160.705C74.6692 160.692 74.5596 160.638 74.4882 160.543C74.4168 160.447 74.3811 160.309 74.3811 160.128V155.638H73.5885V160.211C73.5885 160.349 73.6004 160.483 73.6242 160.612C73.648 160.742 73.6962 160.858 73.7688 160.959C73.8414 161.061 73.9473 161.142 74.0862 161.202C74.2252 161.263 74.4099 161.293 74.6404 161.293ZM78.1669 161.174C77.9315 161.268 77.6848 161.316 77.4268 161.316C77.0587 161.316 76.7343 161.236 76.4538 161.076C76.1733 160.917 75.9548 160.688 75.7983 160.392C75.6418 160.095 75.5635 159.742 75.5635 159.333C75.5635 158.928 75.6349 158.57 75.7776 158.26C75.9204 157.95 76.127 157.706 76.3975 157.53C76.668 157.355 76.9935 157.267 77.3742 157.267C77.7499 157.267 78.0661 157.347 78.3228 157.508C78.5795 157.669 78.7742 157.894 78.9069 158.185C79.0397 158.475 79.106 158.817 79.106 159.212V159.48H76.3712C76.3712 159.713 76.4094 159.923 76.4858 160.107C76.5622 160.292 76.678 160.438 76.8333 160.545C76.9885 160.651 77.1814 160.705 77.4118 160.705C77.6422 160.705 77.8419 160.652 78.011 160.546C78.18 160.441 78.2908 160.284 78.3434 160.075H79.0873C79.0422 160.342 78.9364 160.568 78.7698 160.754C78.6033 160.94 78.4023 161.08 78.1669 161.174ZM78.3397 158.956H76.3712C76.3712 158.777 76.4081 158.604 76.482 158.435C76.5559 158.267 76.6667 158.129 76.8145 158.021C76.9622 157.913 77.1476 157.858 77.3705 157.858C77.5883 157.858 77.7693 157.907 77.9133 158.004C78.0573 158.1 78.1644 158.232 78.2345 158.399C78.3046 158.567 78.3397 158.752 78.3397 158.956ZM81.7056 161.244C81.6067 161.259 81.4796 161.267 81.3243 161.267C81.0363 161.267 80.8128 161.228 80.6537 161.15C80.4947 161.072 80.3845 160.959 80.3232 160.812C80.2618 160.665 80.2311 160.487 80.2311 160.279V157.923H79.6V157.342H80.2537L80.4528 156.196H81.035V157.338H81.9066V157.923H81.035L81.0388 160.249C81.0388 160.377 81.0519 160.47 81.0782 160.53C81.1045 160.589 81.1496 160.626 81.2135 160.643C81.2773 160.659 81.3644 160.667 81.4746 160.667H81.9291V161.191C81.879 161.211 81.8045 161.229 81.7056 161.244ZM84.3493 161.316C84.6073 161.316 84.854 161.268 85.0894 161.174C85.3248 161.08 85.5258 160.94 85.6923 160.754C85.8589 160.568 85.9647 160.342 86.0098 160.075H85.2659C85.2133 160.284 85.1025 160.441 84.9335 160.546C84.7644 160.652 84.5647 160.705 84.3343 160.705C84.1039 160.705 83.911 160.651 83.7558 160.545C83.6005 160.438 83.4847 160.292 83.4083 160.107C83.3319 159.923 83.2937 159.713 83.2937 159.48H86.0285V159.212C86.0285 158.817 85.9622 158.475 85.8294 158.185C85.6967 157.894 85.502 157.669 85.2453 157.508C84.9886 157.347 84.6724 157.267 84.2967 157.267C83.916 157.267 83.5905 157.355 83.32 157.53C83.0495 157.706 82.8429 157.95 82.7001 158.26C82.5574 158.57 82.486 158.928 82.486 159.333C82.486 159.742 82.5643 160.095 82.7208 160.392C82.8773 160.688 83.0958 160.917 83.3763 161.076C83.6568 161.236 83.9812 161.316 84.3493 161.316ZM83.2937 158.956H85.2622C85.2622 158.752 85.2271 158.567 85.157 158.399C85.0869 158.232 84.9798 158.1 84.8358 158.004C84.6918 157.907 84.5109 157.858 84.293 157.858C84.0701 157.858 83.8847 157.913 83.737 158.021C83.5892 158.129 83.4784 158.267 83.4045 158.435C83.3306 158.604 83.2937 158.777 83.2937 158.956ZM88.2844 161.316C88.4998 161.316 88.6838 161.287 88.8366 161.229C88.9894 161.171 89.1152 161.097 89.2141 161.006C89.3131 160.916 89.3913 160.82 89.4489 160.72C89.5065 160.619 89.5491 160.526 89.5767 160.441L89.6668 161.24H90.2679V155.638H89.4602V157.934C89.4226 157.866 89.3694 157.793 89.3006 157.715C89.2317 157.637 89.1453 157.564 89.0413 157.497C88.9374 157.429 88.8172 157.373 88.6807 157.331C88.5442 157.288 88.3883 157.267 88.213 157.267C87.8674 157.267 87.5775 157.35 87.3433 157.515C87.1092 157.681 86.9332 157.914 86.8155 158.215C86.6978 158.515 86.639 158.868 86.639 159.272C86.639 159.933 86.7855 160.439 87.0785 160.79C87.3715 161.14 87.7735 161.316 88.2844 161.316ZM87.6965 160.332C87.868 160.583 88.1153 160.709 88.4384 160.709C88.799 160.709 89.0595 160.595 89.2198 160.367C89.3801 160.14 89.4602 159.766 89.4602 159.246C89.4577 158.952 89.4214 158.703 89.3513 158.499C89.2811 158.296 89.1728 158.142 89.0263 158.038C88.8798 157.933 88.6876 157.881 88.4497 157.881C88.1516 157.881 87.9087 157.989 87.7209 158.203C87.533 158.418 87.4391 158.766 87.4391 159.246C87.4391 159.718 87.5249 160.08 87.6965 160.332ZM94.0275 161.316C94.3055 161.316 94.5553 161.258 94.777 161.144C94.9986 161.03 95.1821 160.823 95.3273 160.524L95.3912 161.24H96.0711V158.514C96.0711 158.248 96.0154 158.022 95.904 157.836C95.7925 157.65 95.6228 157.508 95.3949 157.412C95.167 157.315 94.8765 157.267 94.5234 157.267C94.2053 157.267 93.9286 157.312 93.6932 157.402C93.4578 157.493 93.2731 157.627 93.1391 157.804C93.0051 157.981 92.9306 158.199 92.9156 158.458H93.6143C93.6644 158.239 93.7702 158.082 93.9317 157.987C94.0933 157.891 94.278 157.843 94.4858 157.843C94.7613 157.841 94.9654 157.904 95.0982 158.032C95.2309 158.16 95.2973 158.336 95.2973 158.56V158.842L94.6586 158.861C93.99 158.874 93.5028 158.987 93.1973 159.201C92.8918 159.414 92.739 159.737 92.739 160.169C92.739 160.411 92.7941 160.617 92.9043 160.788C93.0145 160.959 93.1666 161.089 93.3607 161.18C93.5548 161.27 93.7771 161.316 94.0275 161.316ZM93.7307 160.579C93.876 160.695 94.0588 160.754 94.2792 160.754C94.4019 160.754 94.5234 160.732 94.6436 160.688C94.7638 160.644 94.8728 160.584 94.9704 160.507C95.0681 160.43 95.1464 160.344 95.2052 160.249C95.2641 160.153 95.2948 160.055 95.2973 159.955V159.31L94.7713 159.321C94.5034 159.324 94.2761 159.351 94.0895 159.404C93.9029 159.457 93.7602 159.539 93.6612 159.649C93.5623 159.76 93.5129 159.907 93.5129 160.09C93.5129 160.299 93.5855 160.462 93.7307 160.579ZM97.945 161.24V158.665C97.945 158.504 97.9888 158.371 98.0765 158.264C98.1641 158.157 98.2793 158.077 98.4221 158.024C98.5648 157.972 98.7151 157.945 98.8729 157.945C99.1083 157.945 99.3005 158.013 99.4495 158.149C99.5985 158.284 99.673 158.492 99.673 158.771V161.24H100.477V158.684C100.477 158.36 100.414 158.095 100.289 157.891C100.164 157.686 99.998 157.535 99.7914 157.438C99.5848 157.341 99.36 157.293 99.1171 157.293C98.9117 157.293 98.7307 157.322 98.5742 157.38C98.4177 157.437 98.2862 157.513 98.1798 157.606C98.0733 157.699 97.9888 157.798 97.9262 157.904V157.342H97.141V161.24H97.945ZM103.42 161.229C103.267 161.287 103.083 161.316 102.867 161.316C102.356 161.316 101.954 161.14 101.661 160.79C101.368 160.439 101.222 159.933 101.222 159.272C101.222 158.868 101.281 158.515 101.398 158.215C101.516 157.914 101.692 157.681 101.926 157.515C102.16 157.35 102.45 157.267 102.796 157.267C102.971 157.267 103.127 157.288 103.264 157.331C103.4 157.373 103.52 157.429 103.624 157.497C103.728 157.564 103.815 157.637 103.883 157.715C103.952 157.793 104.006 157.866 104.043 157.934V155.638H104.851V161.24H104.25L104.16 160.441C104.132 160.526 104.089 160.619 104.032 160.72C103.974 160.82 103.896 160.916 103.797 161.006C103.698 161.097 103.572 161.171 103.42 161.229ZM103.021 160.709C102.698 160.709 102.451 160.583 102.279 160.332C102.108 160.08 102.022 159.718 102.022 159.246C102.022 158.766 102.116 158.418 102.304 158.203C102.492 157.989 102.735 157.881 103.033 157.881C103.271 157.881 103.463 157.933 103.609 158.038C103.756 158.142 103.864 158.296 103.934 158.499C104.004 158.703 104.041 158.952 104.043 159.246C104.043 159.766 103.963 160.14 103.803 160.367C103.642 160.595 103.382 160.709 103.021 160.709ZM36.9979 171.009V172.894H36.1902V167.782H36.9941L37.0016 168.43C37.0492 168.345 37.1106 168.26 37.1857 168.176C37.2608 168.092 37.3504 168.014 37.4543 167.942C37.5582 167.871 37.6772 167.813 37.8112 167.771C37.9452 167.728 38.0936 167.707 38.2563 167.707C38.5619 167.707 38.8317 167.778 39.0659 167.92C39.3001 168.062 39.4829 168.279 39.6144 168.572C39.7459 168.865 39.8116 169.236 39.8116 169.686C39.8116 170.138 39.7459 170.518 39.6144 170.824C39.4829 171.131 39.2957 171.363 39.0528 171.52C38.8098 171.677 38.5218 171.756 38.1887 171.756C38.0284 171.756 37.8844 171.733 37.7567 171.688C37.629 171.642 37.5163 171.583 37.4186 171.509C37.3209 171.434 37.2377 171.354 37.1688 171.267C37.0999 171.181 37.0429 171.095 36.9979 171.009ZM38.0197 171.141C37.7943 171.141 37.6052 171.076 37.4524 170.945C37.2997 170.814 37.1851 170.64 37.1087 170.423C37.0323 170.205 36.9941 169.965 36.9941 169.701C36.9941 169.296 37.0805 168.965 37.2533 168.708C37.4261 168.45 37.6816 168.321 38.0197 168.321C38.3478 168.321 38.6001 168.445 38.7766 168.692C38.9532 168.94 39.0415 169.276 39.0415 169.701C39.0415 170.196 38.9457 170.56 38.7541 170.792C38.5625 171.025 38.3177 171.141 38.0197 171.141ZM41.4178 169.335V171.68H40.6138V167.782H41.384V168.581C41.4491 168.39 41.5399 168.23 41.6563 168.101C41.7728 167.971 41.9086 167.873 42.0639 167.806C42.2192 167.74 42.3832 167.707 42.556 167.707C42.6086 167.707 42.6587 167.71 42.7063 167.716C42.7539 167.722 42.7915 167.733 42.819 167.748V168.525C42.7864 168.51 42.7445 168.5 42.6932 168.495C42.6418 168.489 42.5974 168.486 42.5598 168.483C42.3895 168.471 42.2342 168.479 42.094 168.51C41.9537 168.54 41.8329 168.59 41.7314 168.66C41.63 168.731 41.5524 168.823 41.4985 168.936C41.4447 169.049 41.4178 169.182 41.4178 169.335ZM45.0173 171.756C45.4055 171.756 45.733 171.671 45.9997 171.501C46.2664 171.331 46.4693 171.096 46.6083 170.794C46.7473 170.493 46.8167 170.145 46.8167 169.75C46.8167 169.318 46.7429 168.949 46.5951 168.643C46.4473 168.338 46.2395 168.106 45.9715 167.946C45.7035 167.786 45.3867 167.707 45.0211 167.707C44.6379 167.707 44.3111 167.791 44.0406 167.961C43.7701 168.131 43.5641 168.369 43.4226 168.675C43.2811 168.982 43.2104 169.34 43.2104 169.75C43.2104 170.175 43.2849 170.537 43.4339 170.836C43.5829 171.135 43.7933 171.363 44.065 171.52C44.3367 171.677 44.6542 171.756 45.0173 171.756ZM44.4313 170.941C44.5815 171.069 44.7781 171.134 45.0211 171.134C45.2415 171.134 45.4262 171.075 45.5752 170.958C45.7242 170.841 45.8363 170.677 45.9114 170.464C45.9865 170.252 46.0241 170.006 46.0241 169.727C46.0241 169.468 45.9909 169.233 45.9245 169.02C45.8582 168.808 45.7511 168.639 45.6033 168.513C45.4556 168.388 45.2615 168.325 45.0211 168.325C44.7957 168.325 44.6078 168.382 44.4576 168.496C44.3073 168.611 44.194 168.773 44.1176 168.983C44.0412 169.193 44.003 169.441 44.003 169.727C44.003 169.981 44.0368 170.215 44.1044 170.429C44.1721 170.642 44.281 170.813 44.4313 170.941ZM49.1989 171.756C49.4844 171.756 49.7405 171.7 49.9671 171.59C50.1938 171.479 50.3779 171.325 50.5194 171.126C50.6609 170.927 50.7454 170.697 50.7729 170.436H50.0892C50.0692 170.554 50.0229 170.669 49.9502 170.779C49.8776 170.89 49.7793 170.98 49.6553 171.051C49.5314 171.121 49.3855 171.156 49.2177 171.156C48.8696 171.156 48.6047 171.028 48.4232 170.772C48.2416 170.515 48.1508 170.171 48.1508 169.739C48.1508 169.266 48.2485 168.916 48.4438 168.687C48.6392 168.458 48.8921 168.344 49.2027 168.344C49.373 168.344 49.5201 168.377 49.6441 168.444C49.768 168.51 49.867 168.599 49.9408 168.709C50.0147 168.82 50.0629 168.939 50.0855 169.068H50.7805C50.7504 168.796 50.6652 168.559 50.525 168.355C50.3848 168.151 50.2013 167.992 49.9746 167.878C49.748 167.764 49.4894 167.707 49.1989 167.707C48.8207 167.707 48.4958 167.792 48.224 167.963C47.9523 168.134 47.7451 168.373 47.6023 168.679C47.4596 168.986 47.3882 169.342 47.3882 169.746C47.3882 170.176 47.4652 170.541 47.6192 170.841C47.7733 171.142 47.9868 171.369 48.2597 171.524C48.5327 171.678 48.8458 171.756 49.1989 171.756ZM54.0189 171.614C53.7835 171.708 53.5368 171.756 53.2788 171.756C52.9107 171.756 52.5863 171.676 52.3059 171.516C52.0254 171.357 51.8068 171.128 51.6503 170.832C51.4938 170.535 51.4155 170.182 51.4155 169.773C51.4155 169.368 51.4869 169.01 51.6297 168.7C51.7724 168.39 51.979 168.146 52.2495 167.97C52.52 167.795 52.8456 167.707 53.2262 167.707C53.6019 167.707 53.9181 167.787 54.1748 167.948C54.4315 168.109 54.6262 168.334 54.7589 168.625C54.8917 168.915 54.958 169.257 54.958 169.652V169.92H52.2232C52.2232 170.153 52.2614 170.363 52.3378 170.547C52.4142 170.732 52.53 170.878 52.6853 170.985C52.8405 171.091 53.0334 171.145 53.2638 171.145C53.4942 171.145 53.6939 171.092 53.863 170.986C54.032 170.881 54.1429 170.724 54.1954 170.515H54.9393C54.8942 170.782 54.7884 171.008 54.6218 171.194C54.4553 171.38 54.2543 171.52 54.0189 171.614ZM54.1917 169.396H52.2232C52.2232 169.217 52.2601 169.044 52.334 168.875C52.4079 168.707 52.5187 168.569 52.6665 168.461C52.8143 168.353 52.9996 168.298 53.2225 168.298C53.4404 168.298 53.6213 168.347 53.7653 168.444C53.9093 168.54 54.0164 168.672 54.0865 168.839C54.1566 169.007 54.1917 169.192 54.1917 169.396ZM58.0159 171.614C57.7868 171.708 57.5144 171.756 57.1989 171.756C56.9284 171.756 56.6748 171.713 56.4381 171.627C56.2015 171.542 56.0036 171.407 55.8446 171.224C55.6856 171.041 55.586 170.806 55.5459 170.519H56.2635C56.296 170.667 56.358 170.79 56.4494 170.887C56.5408 170.983 56.651 171.055 56.78 171.101C56.909 171.148 57.0473 171.171 57.1951 171.171C57.4405 171.171 57.639 171.127 57.7905 171.037C57.942 170.948 58.0178 170.811 58.0178 170.625C58.0178 170.491 57.9771 170.385 57.8957 170.304C57.8143 170.224 57.686 170.165 57.5107 170.127L56.7368 169.942C56.4162 169.867 56.1595 169.747 55.9667 169.582C55.7738 169.418 55.6762 169.187 55.6737 168.89C55.6737 168.662 55.7306 168.458 55.8446 168.28C55.9585 168.101 56.1282 167.961 56.3536 167.859C56.579 167.757 56.8595 167.707 57.1951 167.707C57.6334 167.707 57.9853 167.805 58.2507 168.001C58.5162 168.197 58.6539 168.481 58.664 168.853H57.969C57.9439 168.674 57.8632 168.534 57.7267 168.432C57.5902 168.331 57.4105 168.28 57.1876 168.28C56.9572 168.28 56.7681 168.325 56.6203 168.417C56.4726 168.509 56.3987 168.649 56.3987 168.838C56.3987 168.966 56.4525 169.067 56.5602 169.141C56.6679 169.215 56.8295 169.276 57.0448 169.324L57.7811 169.509C57.9715 169.559 58.128 169.625 58.2507 169.707C58.3734 169.788 58.4699 169.878 58.54 169.976C58.6101 170.074 58.6596 170.176 58.6884 170.281C58.7172 170.387 58.7316 170.486 58.7316 170.579C58.7316 170.826 58.6696 171.036 58.5456 171.211C58.4216 171.385 58.2451 171.52 58.0159 171.614ZM60.9501 171.756C61.2656 171.756 61.538 171.708 61.7671 171.614C61.9963 171.52 62.1729 171.385 62.2968 171.211C62.4208 171.036 62.4828 170.826 62.4828 170.579C62.4828 170.486 62.4684 170.387 62.4396 170.281C62.4108 170.176 62.3613 170.074 62.2912 169.976C62.2211 169.878 62.1247 169.788 62.0019 169.707C61.8792 169.625 61.7227 169.559 61.5324 169.509L60.7961 169.324C60.5807 169.276 60.4191 169.215 60.3114 169.141C60.2038 169.067 60.1499 168.966 60.1499 168.838C60.1499 168.649 60.2238 168.509 60.3716 168.417C60.5193 168.325 60.7084 168.28 60.9388 168.28C61.1617 168.28 61.3414 168.331 61.4779 168.432C61.6144 168.534 61.6951 168.674 61.7202 168.853H62.4152C62.4052 168.481 62.2674 168.197 62.0019 168.001C61.7365 167.805 61.3846 167.707 60.9463 167.707C60.6107 167.707 60.3302 167.757 60.1048 167.859C59.8794 167.961 59.7098 168.101 59.5958 168.28C59.4818 168.458 59.4249 168.662 59.4249 168.89C59.4274 169.187 59.5251 169.418 59.7179 169.582C59.9107 169.747 60.1674 169.867 60.488 169.942L61.2619 170.127C61.4372 170.165 61.5655 170.224 61.6469 170.304C61.7283 170.385 61.769 170.491 61.769 170.625C61.769 170.811 61.6933 170.948 61.5417 171.037C61.3902 171.127 61.1918 171.171 60.9463 171.171C60.7986 171.171 60.6602 171.148 60.5312 171.101C60.4022 171.055 60.292 170.983 60.2006 170.887C60.1092 170.79 60.0472 170.667 60.0147 170.519H59.2971C59.3372 170.806 59.4368 171.041 59.5958 171.224C59.7548 171.407 59.9527 171.542 60.1894 171.627C60.426 171.713 60.6796 171.756 60.9501 171.756ZM65.7419 171.614C65.5065 171.708 65.2598 171.756 65.0018 171.756C64.6337 171.756 64.3093 171.676 64.0289 171.516C63.7484 171.357 63.5298 171.128 63.3733 170.832C63.2168 170.535 63.1385 170.182 63.1385 169.773C63.1385 169.368 63.2099 169.01 63.3527 168.7C63.4954 168.39 63.702 168.146 63.9725 167.97C64.243 167.795 64.5686 167.707 64.9492 167.707C65.3249 167.707 65.6411 167.787 65.8978 167.948C66.1545 168.109 66.3492 168.334 66.4819 168.625C66.6147 168.915 66.681 169.257 66.681 169.652V169.92H63.9462C63.9462 170.153 63.9844 170.363 64.0608 170.547C64.1372 170.732 64.253 170.878 64.4083 170.985C64.5635 171.091 64.7564 171.145 64.9868 171.145C65.2172 171.145 65.4169 171.092 65.586 170.986C65.755 170.881 65.8659 170.724 65.9184 170.515H66.6623C66.6172 170.782 66.5114 171.008 66.3448 171.194C66.1783 171.38 65.9773 171.52 65.7419 171.614ZM65.9147 169.396H63.9462C63.9462 169.217 63.9831 169.044 64.057 168.875C64.1309 168.707 64.2417 168.569 64.3895 168.461C64.5373 168.353 64.7226 168.298 64.9455 168.298C65.1634 168.298 65.3443 168.347 65.4883 168.444C65.6323 168.54 65.7394 168.672 65.8095 168.839C65.8796 169.007 65.9147 169.192 65.9147 169.396ZM69.4891 171.669C69.3363 171.727 69.1523 171.756 68.9369 171.756C68.426 171.756 68.024 171.58 67.731 171.23C67.438 170.879 67.2915 170.373 67.2915 169.712C67.2915 169.308 67.3503 168.955 67.468 168.655C67.5857 168.354 67.7617 168.121 67.9958 167.955C68.23 167.79 68.5199 167.707 68.8655 167.707C69.0408 167.707 69.1967 167.728 69.3332 167.771C69.4697 167.813 69.5899 167.869 69.6939 167.937C69.7978 168.004 69.8842 168.077 69.9531 168.155C70.0219 168.233 70.0751 168.306 70.1127 168.374V166.078H70.9204V171.68H70.3193L70.2292 170.881C70.2016 170.966 70.159 171.059 70.1014 171.16C70.0438 171.26 69.9656 171.356 69.8667 171.446C69.7677 171.537 69.6419 171.611 69.4891 171.669ZM69.0909 171.149C68.7678 171.149 68.5205 171.023 68.349 170.772C68.1774 170.52 68.0916 170.158 68.0916 169.686C68.0916 169.206 68.1856 168.858 68.3734 168.643C68.5612 168.429 68.8041 168.321 69.1022 168.321C69.3401 168.321 69.5323 168.373 69.6788 168.478C69.8253 168.582 69.9337 168.736 70.0038 168.939C70.0739 169.143 70.1102 169.392 70.1127 169.686C70.1127 170.206 70.0326 170.58 69.8723 170.807C69.712 171.035 69.4515 171.149 69.0909 171.149ZM75.8314 171.614C75.6023 171.708 75.3299 171.756 75.0144 171.756C74.7439 171.756 74.4903 171.713 74.2537 171.627C74.017 171.542 73.8191 171.407 73.6601 171.224C73.5011 171.041 73.4015 170.806 73.3614 170.519H74.079C74.1115 170.667 74.1735 170.79 74.2649 170.887C74.3563 170.983 74.4665 171.055 74.5955 171.101C74.7245 171.148 74.8629 171.171 75.0106 171.171C75.2561 171.171 75.4545 171.127 75.606 171.037C75.7576 170.948 75.8333 170.811 75.8333 170.625C75.8333 170.491 75.7926 170.385 75.7112 170.304C75.6298 170.224 75.5015 170.165 75.3262 170.127L74.5523 169.942C74.2317 169.867 73.975 169.747 73.7822 169.582C73.5894 169.418 73.4917 169.187 73.4892 168.89C73.4892 168.662 73.5462 168.458 73.6601 168.28C73.7741 168.101 73.9437 167.961 74.1691 167.859C74.3945 167.757 74.675 167.707 75.0106 167.707C75.4489 167.707 75.8008 167.805 76.0662 168.001C76.3317 168.197 76.4695 168.481 76.4795 168.853H75.7845C75.7594 168.674 75.6787 168.534 75.5422 168.432C75.4057 168.331 75.226 168.28 75.0031 168.28C74.7727 168.28 74.5836 168.325 74.4358 168.417C74.2881 168.509 74.2142 168.649 74.2142 168.838C74.2142 168.966 74.2681 169.067 74.3757 169.141C74.4834 169.215 74.645 169.276 74.8604 169.324L75.5967 169.509C75.787 169.559 75.9435 169.625 76.0662 169.707C76.189 169.788 76.2854 169.878 76.3555 169.976C76.4256 170.074 76.4751 170.176 76.5039 170.281C76.5327 170.387 76.5471 170.486 76.5471 170.579C76.5471 170.826 76.4851 171.036 76.3611 171.211C76.2372 171.385 76.0606 171.52 75.8314 171.614ZM78.8295 171.756C79.0073 171.758 79.1757 171.732 79.3347 171.678C79.4938 171.624 79.6315 171.536 79.748 171.414C79.8644 171.292 79.9452 171.13 79.9903 170.926L80.0804 171.68H80.704V167.782H79.9039V170.319C79.9039 170.588 79.8237 170.792 79.6634 170.932C79.5031 171.071 79.2903 171.141 79.0248 171.141C78.7318 171.141 78.5126 171.068 78.3674 170.922C78.2221 170.777 78.1495 170.587 78.1495 170.353V167.782H77.3418V170.44C77.3418 170.656 77.3825 170.846 77.4639 171.009C77.5453 171.172 77.6555 171.309 77.7945 171.42C77.9335 171.531 78.0919 171.614 78.2697 171.669C78.4475 171.724 78.6341 171.753 78.8295 171.756ZM84.0275 171.59C83.8008 171.7 83.5447 171.756 83.2592 171.756C82.9061 171.756 82.593 171.678 82.3201 171.524C82.0471 171.369 81.8336 171.142 81.6795 170.841C81.5255 170.541 81.4485 170.176 81.4485 169.746C81.4485 169.342 81.5199 168.986 81.6626 168.679C81.8054 168.373 82.0126 168.134 82.2844 167.963C82.5561 167.792 82.881 167.707 83.2592 167.707C83.5497 167.707 83.8083 167.764 84.035 167.878C84.2616 167.992 84.4451 168.151 84.5853 168.355C84.7256 168.559 84.8107 168.796 84.8408 169.068H84.1458C84.1232 168.939 84.075 168.82 84.0012 168.709C83.9273 168.599 83.8284 168.51 83.7044 168.444C83.5804 168.377 83.4333 168.344 83.263 168.344C82.9524 168.344 82.6995 168.458 82.5041 168.687C82.3088 168.916 82.2111 169.266 82.2111 169.739C82.2111 170.171 82.3019 170.515 82.4835 170.772C82.665 171.028 82.9299 171.156 83.278 171.156C83.4458 171.156 83.5917 171.121 83.7156 171.051C83.8396 170.98 83.9379 170.89 84.0105 170.779C84.0832 170.669 84.1295 170.554 84.1495 170.436H84.8333C84.8057 170.697 84.7212 170.927 84.5797 171.126C84.4382 171.325 84.2541 171.479 84.0275 171.59ZM87.2565 171.756C87.542 171.756 87.7981 171.7 88.0247 171.59C88.2514 171.479 88.4355 171.325 88.577 171.126C88.7185 170.927 88.803 170.697 88.8305 170.436H88.1468C88.1268 170.554 88.0805 170.669 88.0078 170.779C87.9352 170.89 87.8369 170.98 87.7129 171.051C87.589 171.121 87.4431 171.156 87.2753 171.156C86.9272 171.156 86.6623 171.028 86.4807 170.772C86.2992 170.515 86.2084 170.171 86.2084 169.739C86.2084 169.266 86.3061 168.916 86.5014 168.687C86.6968 168.458 86.9497 168.344 87.2603 168.344C87.4306 168.344 87.5777 168.377 87.7017 168.444C87.8256 168.51 87.9246 168.599 87.9984 168.709C88.0723 168.82 88.1205 168.939 88.1431 169.068H88.838C88.808 168.796 88.7228 168.559 88.5826 168.355C88.4423 168.151 88.2589 167.992 88.0322 167.878C87.8056 167.764 87.547 167.707 87.2565 167.707C86.8783 167.707 86.5534 167.792 86.2816 167.963C86.0099 168.134 85.8027 168.373 85.6599 168.679C85.5172 168.986 85.4458 169.342 85.4458 169.746C85.4458 170.176 85.5228 170.541 85.6768 170.841C85.8308 171.142 86.0443 171.369 86.3173 171.524C86.5903 171.678 86.9034 171.756 87.2565 171.756ZM92.0765 171.614C91.8411 171.708 91.5944 171.756 91.3364 171.756C90.9683 171.756 90.6439 171.676 90.3634 171.516C90.083 171.357 89.8644 171.128 89.7079 170.832C89.5514 170.535 89.4731 170.182 89.4731 169.773C89.4731 169.368 89.5445 169.01 89.6873 168.7C89.83 168.39 90.0366 168.146 90.3071 167.97C90.5776 167.795 90.9032 167.707 91.2838 167.707C91.6595 167.707 91.9757 167.787 92.2324 167.948C92.4891 168.109 92.6838 168.334 92.8165 168.625C92.9493 168.915 93.0156 169.257 93.0156 169.652V169.92H90.2808C90.2808 170.153 90.319 170.363 90.3954 170.547C90.4718 170.732 90.5876 170.878 90.7429 170.985C90.8981 171.091 91.091 171.145 91.3214 171.145C91.5518 171.145 91.7515 171.092 91.9206 170.986C92.0896 170.881 92.2005 170.724 92.253 170.515H92.9969C92.9518 170.782 92.846 171.008 92.6794 171.194C92.5129 171.38 92.3119 171.52 92.0765 171.614ZM92.2493 169.396H90.2808C90.2808 169.217 90.3177 169.044 90.3916 168.875C90.4655 168.707 90.5763 168.569 90.7241 168.461C90.8718 168.353 91.0572 168.298 91.2801 168.298C91.498 168.298 91.6789 168.347 91.8229 168.444C91.9669 168.54 92.074 168.672 92.1441 168.839C92.2142 169.007 92.2493 169.192 92.2493 169.396ZM96.0735 171.614C95.8444 171.708 95.572 171.756 95.2565 171.756C94.986 171.756 94.7324 171.713 94.4957 171.627C94.2591 171.542 94.0612 171.407 93.9022 171.224C93.7431 171.041 93.6436 170.806 93.6035 170.519H94.321C94.3536 170.667 94.4156 170.79 94.507 170.887C94.5984 170.983 94.7086 171.055 94.8376 171.101C94.9666 171.148 95.1049 171.171 95.2527 171.171C95.4981 171.171 95.6966 171.127 95.8481 171.037C95.9996 170.948 96.0754 170.811 96.0754 170.625C96.0754 170.491 96.0347 170.385 95.9533 170.304C95.8719 170.224 95.7436 170.165 95.5683 170.127L94.7944 169.942C94.4738 169.867 94.2171 169.747 94.0243 169.582C93.8314 169.418 93.7338 169.187 93.7313 168.89C93.7313 168.662 93.7882 168.458 93.9022 168.28C94.0161 168.101 94.1858 167.961 94.4112 167.859C94.6366 167.757 94.9171 167.707 95.2527 167.707C95.691 167.707 96.0428 167.805 96.3083 168.001C96.5738 168.197 96.7115 168.481 96.7215 168.853H96.0266C96.0015 168.674 95.9208 168.534 95.7843 168.432C95.6478 168.331 95.4681 168.28 95.2452 168.28C95.0148 168.28 94.8257 168.325 94.6779 168.417C94.5302 168.509 94.4563 168.649 94.4563 168.838C94.4563 168.966 94.5101 169.067 94.6178 169.141C94.7255 169.215 94.8871 169.276 95.1024 169.324L95.8387 169.509C96.0291 169.559 96.1856 169.625 96.3083 169.707C96.431 169.788 96.5275 169.878 96.5976 169.976C96.6677 170.074 96.7172 170.176 96.746 170.281C96.7748 170.387 96.7892 170.486 96.7892 170.579C96.7892 170.826 96.7272 171.036 96.6032 171.211C96.4792 171.385 96.3027 171.52 96.0735 171.614ZM99.0077 171.756C99.3232 171.756 99.5956 171.708 99.8247 171.614C100.054 171.52 100.23 171.385 100.354 171.211C100.478 171.036 100.54 170.826 100.54 170.579C100.54 170.486 100.526 170.387 100.497 170.281C100.468 170.176 100.419 170.074 100.349 169.976C100.279 169.878 100.182 169.788 100.06 169.707C99.9368 169.625 99.7803 169.559 99.59 169.509L98.8536 169.324C98.6383 169.276 98.4767 169.215 98.369 169.141C98.2613 169.067 98.2075 168.966 98.2075 168.838C98.2075 168.649 98.2814 168.509 98.4291 168.417C98.5769 168.325 98.766 168.28 98.9964 168.28C99.2193 168.28 99.399 168.331 99.5355 168.432C99.672 168.534 99.7527 168.674 99.7778 168.853H100.473C100.463 168.481 100.325 168.197 100.06 168.001C99.7941 167.805 99.4422 167.707 99.0039 167.707C98.6683 167.707 98.3878 167.757 98.1624 167.859C97.937 167.961 97.7673 168.101 97.6534 168.28C97.5394 168.458 97.4825 168.662 97.4825 168.89C97.485 169.187 97.5826 169.418 97.7755 169.582C97.9683 169.747 98.225 169.867 98.5456 169.942L99.3195 170.127C99.4948 170.165 99.6231 170.224 99.7045 170.304C99.7859 170.385 99.8266 170.491 99.8266 170.625C99.8266 170.811 99.7509 170.948 99.5993 171.037C99.4478 171.127 99.2494 171.171 99.0039 171.171C98.8562 171.171 98.7178 171.148 98.5888 171.101C98.4598 171.055 98.3496 170.983 98.2582 170.887C98.1668 170.79 98.1048 170.667 98.0723 170.519H97.3547C97.3948 170.806 97.4944 171.041 97.6534 171.224C97.8124 171.407 98.0103 171.542 98.2469 171.627C98.4836 171.713 98.7372 171.756 99.0077 171.756ZM102.729 168.363V171.68H101.921V168.363H101.129V167.782H101.921V167.19C101.921 166.878 102.004 166.64 102.169 166.476C102.334 166.311 102.577 166.229 102.898 166.229H103.672L103.676 166.787H103.116C102.96 166.787 102.855 166.828 102.798 166.909C102.742 166.991 102.714 167.116 102.714 167.284V167.782H103.638V168.363H102.729ZM105.805 171.756C105.983 171.758 106.151 171.732 106.31 171.678C106.469 171.624 106.607 171.536 106.723 171.414C106.84 171.292 106.921 171.13 106.966 170.926L107.056 171.68H107.679V167.782H106.879V170.319C106.879 170.588 106.799 170.792 106.639 170.932C106.478 171.071 106.266 171.141 106 171.141C105.707 171.141 105.488 171.068 105.343 170.922C105.197 170.777 105.125 170.587 105.125 170.353V167.782H104.317V170.44C104.317 170.656 104.358 170.846 104.439 171.009C104.521 171.172 104.631 171.309 104.77 171.42C104.909 171.531 105.067 171.614 105.245 171.669C105.423 171.724 105.609 171.753 105.805 171.756ZM109.932 171.714C109.866 171.727 109.804 171.733 109.746 171.733C109.516 171.733 109.331 171.703 109.192 171.642C109.053 171.582 108.947 171.501 108.875 171.399C108.802 171.298 108.754 171.182 108.73 171.052C108.706 170.923 108.694 170.789 108.694 170.651V166.078H109.487V170.568C109.487 170.749 109.523 170.887 109.594 170.983C109.665 171.078 109.775 171.132 109.923 171.145L110.126 171.152V171.665C110.063 171.685 109.999 171.702 109.932 171.714ZM111.868 171.733C111.925 171.733 111.987 171.727 112.054 171.714C112.12 171.702 112.185 171.685 112.247 171.665V171.152L112.044 171.145C111.897 171.132 111.787 171.078 111.716 170.983C111.644 170.887 111.609 170.749 111.609 170.568V166.078H110.816V170.651C110.816 170.789 110.828 170.923 110.852 171.052C110.875 171.182 110.924 171.298 110.996 171.399C111.069 171.501 111.175 171.582 111.314 171.642C111.453 171.703 111.637 171.733 111.868 171.733ZM113.847 172.838C113.689 172.895 113.517 172.924 113.332 172.924C113.094 172.924 112.929 172.907 112.838 172.871L112.701 172.819V172.298L113.095 172.306C113.245 172.314 113.369 172.305 113.465 172.28C113.562 172.254 113.638 172.22 113.694 172.176C113.751 172.132 113.794 172.085 113.824 172.035C113.854 171.984 113.877 171.938 113.892 171.895L114.012 171.567L112.498 167.782H113.302L114.391 170.662L115.473 167.782H116.262L114.643 171.899C114.533 172.17 114.412 172.38 114.28 172.528C114.149 172.677 114.004 172.78 113.847 172.838Z" fill="#36536B"/>
<g id="Group 31">
<ellipse id="Oval" opacity="0.25" cx="75.1332" cy="119.48" rx="16.1825" ry="16.24" fill="#BA4270"/>
<path id="Path 2" d="M69.9316 120.464L72.5769 123.118L80.248 115.42" stroke="#BA4270" stroke-width="3"/>
</g>
</g>
</g>
</g>
<g id="Group 2 Copy">
<rect id="Rectangle_2" x="38.1445" y="184.44" width="75.711" height="17.4" rx="8.7" fill="#BA4270"/>
<path id="Dismiss" fill-rule="evenodd" clip-rule="evenodd" d="M67.787 195.176C67.4299 195.366 66.9769 195.46 66.4281 195.46H65.0867V190.848H65.6604C65.8056 190.848 65.9507 190.848 66.0959 190.849C66.2411 190.85 66.3624 190.852 66.4599 190.854C67.0172 190.867 67.4718 190.967 67.8235 191.154C68.1753 191.341 68.4333 191.603 68.5976 191.939C68.7618 192.275 68.8439 192.672 68.8439 193.132C68.8439 193.61 68.757 194.023 68.5832 194.371C68.4095 194.719 68.1441 194.987 67.787 195.176ZM66.0212 194.708H66.4472C66.7099 194.708 66.9489 194.657 67.164 194.554C67.379 194.452 67.5512 194.285 67.6805 194.054C67.8098 193.822 67.8744 193.512 67.8744 193.125C67.8744 192.766 67.8172 192.474 67.7027 192.25C67.5883 192.025 67.4251 191.861 67.2132 191.757C67.0013 191.653 66.7502 191.6 66.4599 191.6H66.0212V194.708ZM70.4416 191.69V190.851H69.5388V191.69H70.4416ZM70.432 192.162V195.46H69.5452V192.162H70.432ZM72.5256 195.524C72.7989 195.524 73.0395 195.484 73.2471 195.403C73.4548 195.322 73.6169 195.205 73.7335 195.05C73.85 194.896 73.9083 194.71 73.9083 194.491C73.9083 194.416 73.8961 194.333 73.8718 194.24C73.8474 194.148 73.8034 194.056 73.7398 193.964C73.6763 193.873 73.5867 193.788 73.4712 193.711C73.3558 193.633 73.2058 193.572 73.0215 193.527L72.4874 193.406C72.3094 193.37 72.178 193.327 72.0933 193.277C72.0085 193.227 71.9661 193.158 71.9661 193.071C71.9661 192.954 72.018 192.867 72.1219 192.81C72.2257 192.752 72.3582 192.723 72.5192 192.723C72.6739 192.723 72.8027 192.758 72.9054 192.827C73.0082 192.896 73.0713 192.995 73.0946 193.122H73.8702C73.8659 192.797 73.7425 192.545 73.4999 192.366C73.2572 192.187 72.9335 192.098 72.5288 192.098C72.23 192.098 71.9778 192.144 71.7722 192.235C71.5667 192.327 71.4114 192.451 71.3065 192.609C71.2016 192.766 71.1492 192.943 71.1492 193.141C71.1534 193.413 71.2435 193.623 71.4194 193.771C71.5953 193.919 71.8284 194.024 72.1187 194.086L72.6972 194.207C72.8456 194.234 72.9521 194.275 73.0167 194.328C73.0813 194.381 73.1136 194.452 73.1136 194.542C73.1136 194.659 73.0591 194.745 72.9499 194.802C72.8408 194.858 72.6972 194.886 72.5192 194.886C72.4345 194.886 72.3455 194.872 72.2522 194.843C72.159 194.814 72.0758 194.766 72.0027 194.698C71.9296 194.63 71.8792 194.537 71.8517 194.42H71.0475C71.0877 194.68 71.181 194.891 71.3272 195.054C71.4734 195.216 71.6525 195.335 71.8644 195.411C72.0763 195.486 72.2967 195.524 72.5256 195.524ZM75.4361 193.349V195.46H74.5079V192.162H75.417V192.628C75.5166 192.483 75.6506 192.359 75.8191 192.254C75.9876 192.15 76.2 192.098 76.4564 192.098C76.5687 192.098 76.6832 192.118 76.7997 192.159C76.9163 192.199 77.0259 192.258 77.1287 192.336C77.2315 192.413 77.3147 192.511 77.3782 192.628C77.4842 192.477 77.6235 192.351 77.7962 192.25C77.969 192.149 78.1613 192.098 78.3732 192.098C78.4961 192.098 78.6206 192.118 78.7467 192.159C78.8728 192.199 78.9888 192.265 79.0947 192.357C79.2007 192.448 79.286 192.57 79.3506 192.722C79.4153 192.874 79.4476 193.062 79.4476 193.285V195.46H78.5194V193.4C78.5194 193.268 78.4934 193.162 78.4415 193.082C78.3896 193.003 78.3239 192.945 78.2444 192.91C78.165 192.875 78.0807 192.857 77.9917 192.857C77.9091 192.857 77.8254 192.874 77.7406 192.907C77.6558 192.94 77.5838 192.992 77.5245 193.065C77.4651 193.137 77.4355 193.232 77.4355 193.349V195.46H76.5105V193.317C76.5105 193.217 76.484 193.133 76.431 193.065C76.378 192.997 76.3118 192.945 76.2323 192.91C76.1529 192.875 76.0718 192.857 75.9891 192.857C75.9044 192.857 75.8196 192.875 75.7348 192.91C75.6501 192.945 75.5791 192.999 75.5219 193.073C75.4647 193.146 75.4361 193.238 75.4361 193.349ZM81.0961 191.69V190.851H80.1934V191.69H81.0961ZM81.0866 192.162V195.46H80.1997V192.162H81.0866ZM83.1801 195.524C83.4535 195.524 83.694 195.484 83.9017 195.403C84.1094 195.322 84.2715 195.205 84.388 195.05C84.5046 194.896 84.5629 194.71 84.5629 194.491C84.5629 194.416 84.5507 194.333 84.5263 194.24C84.5019 194.148 84.458 194.056 84.3944 193.964C84.3308 193.873 84.2413 193.788 84.1258 193.711C84.0103 193.633 83.8604 193.572 83.676 193.527L83.142 193.406C82.964 193.37 82.8326 193.327 82.7478 193.277C82.663 193.227 82.6207 193.158 82.6207 193.071C82.6207 192.954 82.6726 192.867 82.7764 192.81C82.8803 192.752 83.0127 192.723 83.1738 192.723C83.3285 192.723 83.4572 192.758 83.56 192.827C83.6628 192.896 83.7258 192.995 83.7491 193.122H84.5247C84.5205 192.797 84.397 192.545 84.1544 192.366C83.9117 192.187 83.588 192.098 83.1833 192.098C82.8845 192.098 82.6323 192.144 82.4268 192.235C82.2212 192.327 82.066 192.451 81.9611 192.609C81.8562 192.766 81.8037 192.943 81.8037 193.141C81.808 193.413 81.898 193.623 82.0739 193.771C82.2498 193.919 82.4829 194.024 82.7732 194.086L83.3518 194.207C83.5001 194.234 83.6066 194.275 83.6712 194.328C83.7359 194.381 83.7682 194.452 83.7682 194.542C83.7682 194.659 83.7136 194.745 83.6045 194.802C83.4953 194.858 83.3518 194.886 83.1738 194.886C83.089 194.886 83 194.872 82.9067 194.843C82.8135 194.814 82.7303 194.766 82.6572 194.698C82.5841 194.63 82.5338 194.537 82.5062 194.42H81.702C81.7423 194.68 81.8355 194.891 81.9817 195.054C82.128 195.216 82.307 195.335 82.5189 195.411C82.7309 195.486 82.9512 195.524 83.1801 195.524ZM87.1427 195.403C86.9351 195.484 86.6945 195.524 86.4212 195.524C86.1923 195.524 85.9719 195.486 85.76 195.411C85.5481 195.335 85.369 195.216 85.2228 195.054C85.0766 194.891 84.9833 194.68 84.9431 194.42H85.7473C85.7748 194.537 85.8252 194.63 85.8983 194.698C85.9714 194.766 86.0546 194.814 86.1478 194.843C86.241 194.872 86.3301 194.886 86.4148 194.886C86.5928 194.886 86.7364 194.858 86.8455 194.802C86.9547 194.745 87.0092 194.659 87.0092 194.542C87.0092 194.452 86.9769 194.381 86.9123 194.328C86.8477 194.275 86.7412 194.234 86.5928 194.207L86.0143 194.086C85.724 194.024 85.4909 193.919 85.315 193.771C85.1391 193.623 85.049 193.413 85.0448 193.141C85.0448 192.943 85.0972 192.766 85.2021 192.609C85.307 192.451 85.4623 192.327 85.6678 192.235C85.8734 192.144 86.1256 192.098 86.4244 192.098C86.8291 192.098 87.1528 192.187 87.3954 192.366C87.6381 192.545 87.7615 192.797 87.7658 193.122H86.9902C86.9669 192.995 86.9038 192.896 86.801 192.827C86.6983 192.758 86.5695 192.723 86.4148 192.723C86.2538 192.723 86.1213 192.752 86.0175 192.81C85.9136 192.867 85.8617 192.954 85.8617 193.071C85.8617 193.158 85.9041 193.227 85.9889 193.277C86.0736 193.327 86.205 193.37 86.383 193.406L86.9171 193.527C87.1014 193.572 87.2513 193.633 87.3668 193.711C87.4823 193.788 87.5719 193.873 87.6354 193.964C87.699 194.056 87.743 194.148 87.7674 194.24C87.7917 194.333 87.8039 194.416 87.8039 194.491C87.8039 194.71 87.7456 194.896 87.6291 195.05C87.5125 195.205 87.3504 195.322 87.1427 195.403Z" fill="#FBFCFE"/>
</g>
</g>
</g>
<defs>
<linearGradient id="paint0_linear_6_907" x1="5.78809" y1="0" x2="5.78809" y2="7.14789" gradientUnits="userSpaceOnUse">
<stop stop-color="#454545"/>
<stop offset="0.226279" stop-color="#999999"/>
<stop offset="1" stop-color="white"/>
</linearGradient>
<linearGradient id="paint1_linear_6_907" x1="150.326" y1="49.734" x2="144.858" y2="49.734" gradientUnits="userSpaceOnUse">
<stop stop-color="white" stop-opacity="0.01"/>
<stop offset="0.222178" stop-color="#BABABA"/>
<stop offset="0.54678" stop-color="white" stop-opacity="0.01"/>
<stop offset="1" stop-color="white" stop-opacity="0.01"/>
</linearGradient>
<linearGradient id="paint2_linear_6_907" x1="1.4841" y1="49.5828" x2="6.96077" y2="49.5828" gradientUnits="userSpaceOnUse">
<stop stop-color="white" stop-opacity="0.01"/>
<stop offset="0.222178" stop-color="#BABABA"/>
<stop offset="0.54678" stop-color="white" stop-opacity="0.01"/>
<stop offset="1" stop-color="white" stop-opacity="0.01"/>
</linearGradient>
</defs>
</svg>
